<svg display="none" width="0" height="0" version="1.1" xmlns="http://www.w3.org/2000/svg" xmlns:xlink="http://www.w3.org/1999/xlink">
<defs>
<symbol id="icon-grade-1" viewBox="0 0 1024 1024">
	<title>grade-1</title>
	<path fill="#000" d="M930.909 1024h-837.818c-51.2 0-93.091-41.891-93.091-93.091v-837.818c0-51.2 41.891-93.091 93.091-93.091h837.818c51.2 0 93.091 41.891 93.091 93.091v837.818c0 51.2-41.891 93.091-93.091 93.091z"></path>
	<path fill="#FFF" d="M619.055 377.018c-25.6 2.327-39.564 16.291-37.236 41.891l6.982 123.345c2.327 25.6 16.291 37.236 41.891 37.236h132.655l58.182 97.745c6.982 13.964 18.618 16.291 32.582 9.309s16.291-18.618 9.309-32.582l-74.473-125.673c-4.655-6.982-11.636-11.636-20.945-11.636h-102.4l-2.327-23.273h74.473c11.636 0 18.618-6.982 18.618-18.618s-6.982-18.618-18.618-18.618h-74.473l-2.327-44.218c-2.327-25.6-16.291-37.236-41.891-34.909zM491.055 598.109c0 41.891 13.964 79.127 44.218 109.382s65.164 44.218 107.055 44.218c32.582 0 60.509-9.309 88.436-27.927 25.6-18.618 44.218-41.891 55.855-69.818l-23.273-39.564c-4.655 30.255-18.618 53.527-39.564 74.473-23.273 18.618-48.873 30.255-79.127 30.255-32.582 0-62.836-11.636-86.109-34.909s-34.909-51.2-34.909-86.109c0-37.236 16.291-69.818 46.545-95.418l-2.327-37.236c-23.273 13.964-41.891 32.582-55.855 55.855s-20.945 48.873-20.945 76.8zM211.782 747.055c13.964 0 23.273-4.655 30.255-16.291l65.164-111.709c2.327-2.327 4.655-9.309 4.655-13.964s16.291-72.145 16.291-72.145l69.818 74.473 20.945 114.036c4.655 16.291 13.964 25.6 30.255 27.927 20.945 2.327 32.582-9.309 34.909-30.255v-6.982l-23.273-123.345c0-2.327-2.327-6.982-4.655-9.309l-86.109-100.073 23.273-95.418 18.618 34.909c2.327 4.655 4.655 6.982 4.655 6.982l72.145 48.873c30.255 18.618 51.2-18.618 23.273-34.909l-65.164-46.545-46.545-95.418c-11.636-13.964-23.273-23.273-37.236-23.273-11.636-2.327-23.273 2.327-34.909 9.309l-95.418 79.127c-4.655 4.655-6.982 6.982-6.982 9.309 0 0-20.945 88.436-20.945 93.091-6.982 34.909 37.236 39.564 44.218 9.309l16.291-81.455 34.909-25.6-51.2 228.073-60.509 102.4c-2.327 4.655-4.655 9.309-4.655 13.964-2.327 20.945 6.982 32.582 27.927 34.909zM884.364 747.055c-2.327-6.982-9.309-11.636-16.291-9.309-65.164 18.618-111.709 20.945-148.945 23.273-39.564 2.327-123.345 2.327-169.891 2.327-27.927 0-53.527-2.327-79.127-4.655-32.582-2.327-67.491-4.655-104.727-4.655-20.945 0-44.218 2.327-67.491 2.327-11.636 0-137.309 6.982-144.291 6.982-9.309 4.655-13.964 11.636-13.964 18.618s6.982 11.636 13.964 11.636 130.327-6.982 141.964-6.982c23.273-2.327 46.545-2.327 67.491-2.327 37.236 0 69.818 2.327 102.4 4.655 27.927 2.327 53.527 4.655 81.455 4.655 53.527 0 134.982-2.327 172.218-2.327 37.236-2.327 86.109-4.655 155.927-23.273 6.982-4.655 11.636-13.964 9.309-20.945z"></path>
	<path fill="#FFF" d="M421.236 216.436c0 25.706-20.839 46.545-46.545 46.545s-46.545-20.839-46.545-46.545c0-25.706 20.839-46.545 46.545-46.545s46.545 20.839 46.545 46.545z"></path>
	<path fill="#FFF" d="M660.945 318.836c0 23.136-18.755 41.891-41.891 41.891s-41.891-18.755-41.891-41.891c0-23.136 18.755-41.891 41.891-41.891s41.891 18.755 41.891 41.891z"></path>
</symbol>
<symbol id="icon-grade-2" viewBox="0 0 1024 1024">
	<title>grade-2</title>
	<path fill="#000" d="M930.909 1024h-837.818c-51.2 0-93.091-41.891-93.091-93.091v-837.818c0-51.2 41.891-93.091 93.091-93.091h837.818c51.2 0 93.091 41.891 93.091 93.091v837.818c0 51.2-41.891 93.091-93.091 93.091z"></path>
	<path fill="#FFF" d="M595.782 563.2l13.964-65.164 25.6-20.945-37.236 167.564-30.255 51.2c-2.327 4.655-4.655 6.982-4.655 11.636 0 16.291 6.982 25.6 23.273 27.927 9.309 0 18.618-4.655 23.273-13.964 0 0 32.582-53.527 32.582-55.855 2.327-2.327 4.655-6.982 4.655-11.636l13.964-58.182 39.564 41.891 13.964 67.491c2.327 13.964 11.636 20.945 23.273 20.945 16.291 0 25.6-6.982 27.927-25.6v-4.655l-13.964-74.473c0-2.327 0-4.655-2.327-6.982s-53.527-62.836-53.527-62.836l16.291-62.836 13.964 27.927c2.327 2.327 2.327 4.655 4.655 4.655l46.545 32.582c20.945 13.964 39.564-11.636 18.618-27.927l-41.891-30.255-37.236-74.473c-9.309-11.636-18.618-18.618-30.255-18.618-9.309 0-18.618 2.327-25.6 6.982l-76.8 62.836c-2.327 2.327-4.655 4.655-4.655 9.309 0 0-16.291 67.491-16.291 74.473-4.655 18.618 27.927 25.6 32.582 6.982zM882.036 733.091c-2.327-6.982-9.309-11.636-16.291-9.309-65.164 18.618-111.709 20.945-148.945 23.273-39.564 2.327-123.345 2.327-169.891 2.327-27.927 0-53.527-2.327-79.127-4.655-32.582-2.327-67.491-4.655-104.727-4.655-20.945 0-44.218 2.327-67.491 2.327-39.564 2.327-86.109 4.655-139.636 4.655-6.982 0-13.964 6.982-13.964 13.964s6.982 13.964 13.964 13.964c55.855 0 100.073-2.327 141.964-4.655 23.273-2.327 46.545-2.327 67.491-2.327 37.236 0 69.818 2.327 102.4 4.655 27.927 2.327 53.527 4.655 81.455 4.655 53.527 0 134.982-2.327 172.218-2.327 37.236-2.327 86.109-4.655 155.927-23.273 2.327-4.655 6.982-11.636 4.655-18.618zM221.091 730.764c13.964 0 23.273-4.655 30.255-16.291 0 0 65.164-109.382 65.164-111.709 2.327-2.327 4.655-9.309 4.655-13.964l16.291-72.145 69.818 74.473 20.945 114.036c4.655 16.291 13.964 25.6 30.255 27.927 20.945 2.327 32.582-9.309 34.909-30.255v-6.982l-23.273-123.345c0-2.327-2.327-6.982-4.655-9.309l-86.109-100.073 23.273-95.418 18.618 34.909c2.327 4.655 4.655 6.982 4.655 6.982l72.145 48.873c30.255 18.618 51.2-18.618 23.273-34.909l-65.164-46.545-46.545-95.418c-11.636-13.964-23.273-23.273-37.236-23.273-11.636-2.327-23.273 2.327-34.909 9.309l-97.745 79.127c-4.655 4.655-6.982 6.982-6.982 9.309 0 0-20.945 88.436-20.945 93.091-6.982 34.909 37.236 39.564 44.218 9.309l16.291-81.455 34.909-25.6-51.2 225.745-60.509 104.727c-2.327 4.655-4.655 9.309-4.655 13.964-2.327 20.945 6.982 32.582 30.255 34.909z"></path>
	<path fill="#FFF" d="M428.218 197.818c0 25.706-20.839 46.545-46.545 46.545s-46.545-20.839-46.545-46.545c0-25.706 20.839-46.545 46.545-46.545s46.545 20.839 46.545 46.545z"></path>
	<path fill="#FFF" d="M749.382 360.727c0 20.565-16.671 37.236-37.236 37.236s-37.236-16.671-37.236-37.236c0-20.565 16.671-37.236 37.236-37.236s37.236 16.671 37.236 37.236z"></path>
</symbol>
<symbol id="icon-grade-3" viewBox="0 0 1024 1024">
	<title>grade-3</title>
	<path fill="#000" d="M930.909 1024h-837.818c-51.2 0-93.091-41.891-93.091-93.091v-837.818c0-51.2 41.891-93.091 93.091-93.091h837.818c51.2 0 93.091 41.891 93.091 93.091v837.818c0 51.2-41.891 93.091-93.091 93.091z"></path>
	<path fill="#FFF" d="M365.382 532.945c11.636 0 18.618-9.309 20.945-23.273l2.327-88.436 30.255-32.582-13.964 244.364-46.545 118.691c-2.327 4.655-2.327 11.636-2.327 16.291 2.327 23.273 13.964 32.582 37.236 32.582 13.964-2.327 23.273-9.309 27.927-23.273l48.873-125.673c2.327-6.982 4.655-11.636 2.327-16.291l4.655-79.127 76.8 55.855 44.218 102.4c6.982 16.291 18.618 23.273 34.909 23.273 23.273-2.327 32.582-16.291 30.255-37.236v-6.982l-48.873-111.709c-2.327-4.655-4.655-9.309-6.982-11.636l-93.091-76.8 6.982-102.4 25.6 32.582 6.982 6.982 83.782 39.564c30.255 13.964 44.218-30.255 18.618-41.891l-74.473-37.236-65.164-90.764c-13.964-13.964-27.927-18.618-44.218-18.618-13.964 0-25.6 6.982-32.582 16.291l-88.436 97.745c-2.327 4.655-4.655 9.309-4.655 11.636 0 0-4.655 95.418-6.982 102.4 0 16.291 11.636 23.273 25.6 23.273zM868.073 712.145c-2.327-6.982-9.309-13.964-16.291-11.636-51.2 18.618-148.945 46.545-162.909 46.545-16.291 0-39.564 2.327-67.491 4.655l-25.6 2.327-37.236 2.327h-6.982c-44.218 2.327-48.873 4.655-69.818 34.909-13.964 20.945-46.545 23.273-58.182 23.273-32.582 2.327-9.309 0-11.636 0h-30.255l-53.527 2.327c-37.236 0-144.291 9.309-158.255 9.309-6.982 0-13.964 6.982-13.964 13.964s6.982 13.964 13.964 13.964c0 0 230.4-11.636 242.036-11.636h11.636c37.236-2.327 67.491-9.309 81.455-32.582s25.6-23.273 48.873-25.6l69.818-4.655c25.6-2.327 51.2-4.655 67.491-4.655 23.273 0 165.236-46.545 165.236-46.545 6.982 0 11.636-6.982 11.636-16.291z"></path>
	<path fill="#FFF" d="M556.218 218.764c0 28.277-22.923 51.2-51.2 51.2s-51.2-22.923-51.2-51.2c0-28.277 22.923-51.2 51.2-51.2s51.2 22.923 51.2 51.2z"></path>
</symbol>
<symbol id="icon-grade-4" viewBox="0 0 1024 1024">
	<title>grade-4</title>
	<path fill="#000" d="M930.909 1024h-837.818c-51.2 0-93.091-41.891-93.091-93.091v-837.818c0-51.2 41.891-93.091 93.091-93.091h837.818c51.2 0 93.091 41.891 93.091 93.091v837.818c0 51.2-41.891 93.091-93.091 93.091z"></path>
	<path fill="#FFF" d="M393.309 772.655c2.327 4.655 2.327 6.982 6.982 11.636 2.327 2.327 9.309 11.636 25.6 11.636s25.6-9.309 27.927-11.636c2.327-4.655 4.655-9.309 6.982-16.291l25.6-204.8 109.382 13.964s23.273 79.127 27.927 100.073c2.327 11.636 9.309 20.945 18.618 25.6s25.6 4.655 34.909-2.327c11.636-6.982 13.964-20.945 9.309-34.909-4.655-20.945-32.582-116.364-37.236-128-2.327-11.636-6.982-20.945-18.618-23.273s-107.055-16.291-107.055-16.291l6.982-74.473 9.309 25.6c4.655 6.982 9.309 11.636 13.964 13.964s6.982 2.327 6.982 2.327 55.855 6.982 90.764 11.636c37.236 4.655 44.218-51.2 4.655-53.527l-79.127-9.309-27.927-88.436c-9.309-23.273-20.945-34.909-37.236-37.236s-23.273-2.327-25.6-2.327c-20.945-2.327-39.564 11.636-41.891 30.255s-51.2 439.855-51.2 439.855c-2.327 6.982-2.327 11.636 0 16.291zM337.455 470.109l46.545 4.655c11.636 2.327 16.291-2.327 16.291-13.964l16.291-162.909c0-11.636-4.655-16.291-13.964-18.618l-46.545-4.655c-9.309-2.327-16.291 4.655-18.618 13.964l-16.291 162.909c2.327 11.636 6.982 16.291 16.291 18.618zM861.091 698.182c-2.327-6.982-11.636-11.636-18.618-9.309-41.891 13.964-60.509 20.945-74.473 20.945-16.291 0-39.564 2.327-67.491 4.655-23.273 2.327-46.545 4.655-69.818 4.655-44.218 2.327-46.545 20.945-55.855 62.836v2.327c-6.982 25.6-41.891 25.6-58.182 23.273-32.582-2.327-114.036 2.327-139.636 4.655-11.636 0-174.545 9.309-202.473 9.309-6.982 0-13.964 6.982-13.964 16.291 0 6.982 6.982 13.964 16.291 13.964 0 0 190.836-9.309 202.473-9.309 32.582-2.327 107.055-6.982 134.982-4.655 48.873 4.655 81.455-13.964 88.436-46.545v-4.655c6.982-37.236 6.982-37.236 30.255-39.564s46.545-4.655 69.818-4.655c25.6-2.327 51.2-4.655 67.491-4.655 23.273 0 81.455-23.273 81.455-23.273 9.309 0 11.636-9.309 9.309-16.291z"></path>
	<path fill="#FFF" d="M563.2 221.091c0 28.277-22.923 51.2-51.2 51.2s-51.2-22.923-51.2-51.2c0-28.277 22.923-51.2 51.2-51.2s51.2 22.923 51.2 51.2z"></path>
</symbol>
<symbol id="icon-grade-5" viewBox="0 0 1024 1024">
	<title>grade-5</title>
	<path fill="#000" d="M930.909 1024h-837.818c-51.2 0-93.091-41.891-93.091-93.091v-837.818c0-51.2 41.891-93.091 93.091-93.091h837.818c51.2 0 93.091 41.891 93.091 93.091v837.818c0 51.2-41.891 93.091-93.091 93.091z"></path>
	<path fill="#FFF" d="M714.473 607.418c4.655 16.291 27.927 11.636 23.273-6.982l-79.127-332.8c-2.327-6.982-9.309-9.309-16.291-6.982s-9.309 6.982-6.982 13.964c0 0 69.818 297.891 79.127 332.8zM323.491 777.309c16.291 4.655 30.255 0 37.236-9.309 4.655-4.655 4.655-11.636 6.982-18.618l46.545-221.091 107.055 20.945s16.291 81.455 18.618 100.073c0 9.309 4.655 16.291 9.309 20.945 11.636 16.291 44.218 16.291 53.527-9.309 2.327-4.655 2.327-11.636 0-16.291-2.327-20.945-25.6-128-25.6-128-2.327-13.964-9.309-20.945-20.945-23.273l-102.4-23.273 20.945-107.055 37.236 37.236c4.655 4.655 11.636 4.655 18.618 2.327 0 0 69.818-20.945 83.782-25.6s23.273-23.273 13.964-37.236c-6.982-11.636-16.291-13.964-30.255-11.636l-69.818 23.273s-13.964-16.291-37.236-44.218c-11.636-13.964-20.945-30.255-34.909-34.909-13.964-6.982-23.273-4.655-23.273-4.655-18.618-2.327-37.236 9.309-41.891 25.6s-88.436 444.509-88.436 444.509c-2.327 20.945 4.655 34.909 20.945 39.564zM325.818 253.673c25.6 0 51.2-11.636 53.527-27.927s-4.655-30.255-18.618-32.582c-18.618-4.655-32.582 6.982-39.564 6.982-23.273 4.655-32.582 16.291-34.909 30.255-4.655 13.964 13.964 23.273 39.564 23.273zM221.091 525.964l88.436 18.618c9.309 2.327 16.291-2.327 18.618-11.636l44.218-251.345c2.327-9.309-2.327-16.291-11.636-18.618 0 0-60.509-2.327-69.818-2.327-6.982 0-16.291 2.327-18.618 11.636l-18.618 104.727c-30.255 23.273-37.236 74.473-39.564 83.782l-9.309 48.873c2.327 9.309 4.655 16.291 16.291 16.291zM837.818 570.182c-20.945 0-37.236 9.309-60.509 30.255-9.309 6.982-18.618 20.945-32.582 27.927-11.636 4.655-18.618 9.309-27.927 13.964l-6.982 4.655c-32.582 16.291-72.145 34.909-104.727 46.545-20.945 6.982-32.582 9.309-53.527 9.309-32.582 2.327-55.855 25.6-76.8 48.873-16.291 16.291-32.582 32.582-51.2 34.909-16.291 0-39.564 4.655-62.836 6.982-11.636 2.327-27.927 4.655-37.236 6.982-34.909 9.309-118.691 32.582-141.964 44.218-6.982 2.327-9.309 11.636-6.982 18.618s11.636 9.309 18.618 6.982c55.855-23.273 186.182-53.527 232.727-55.855 27.927-2.327 48.873-23.273 67.491-41.891 20.945-20.945 39.564-39.564 65.164-39.564 48.873 0 114.036-32.582 165.236-58.182 11.636-6.982 25.6-11.636 34.909-16.291s25.6-18.618 39.564-30.255c23.273-20.945 32.582-23.273 41.891-23.273 6.982 0 13.964-6.982 13.964-13.964-2.327-13.964-9.309-20.945-16.291-20.945z"></path>
	<path fill="#FFF" d="M512 202.473c0 26.992-21.881 48.873-48.873 48.873s-48.873-21.881-48.873-48.873c0-26.992 21.881-48.873 48.873-48.873s48.873 21.881 48.873 48.873z"></path>
</symbol>
</defs>
</svg>
