<svg display="none" width="0" height="0" version="1.1" xmlns="http://www.w3.org/2000/svg" xmlns:xlink="http://www.w3.org/1999/xlink">
<defs>
<symbol id="icon-angle-left" viewBox="0 0 1024 1024">
	<title>angle-left</title>
	<path class="path1" d="M657.493 316.16l-60.16-60.16-256 256 256 256 60.16-60.16-195.413-195.84z"></path>
</symbol>
<symbol id="icon-angle-right" viewBox="0 0 1024 1024">
	<title>angle-right</title>
	<path class="path1" d="M426.667 256l-60.16 60.16 195.413 195.84-195.413 195.84 60.16 60.16 256-256z"></path>
</symbol>
<symbol id="icon-angle-up" viewBox="0 0 1024 1024">
	<title>angle-up</title>
	<path class="path1" d="M512 341.333l-256 256 60.16 60.16 195.84-195.413 195.84 195.413 60.16-60.16z"></path>
</symbol>
<symbol id="icon-arrow-back" viewBox="0 0 1024 1024">
	<title>arrow-back</title>
	<path class="path1" d="M853.333 469.333h-519.253l238.507-238.507-60.587-60.16-341.333 341.333 341.333 341.333 60.16-60.16-238.080-238.507h519.253v-85.333z"></path>
</symbol>
<symbol id="icon-arrow-forward" viewBox="0 0 1024 1024">
	<title>arrow-forward</title>
	<path class="path1" d="M512 170.667l-60.16 60.16 238.080 238.507h-519.253v85.333h519.253l-238.080 238.507 60.16 60.16 341.333-341.333z"></path>
</symbol>
<symbol id="icon-bike" viewBox="0 0 1024 1024">
	<title>bike</title>
	<path class="path1" d="M661.333 234.667c46.933 0 85.333-38.4 85.333-85.333s-38.4-85.333-85.333-85.333-85.333 38.4-85.333 85.333 38.4 85.333 85.333 85.333zM213.333 512c-119.467 0-213.333 93.867-213.333 213.333s93.867 213.333 213.333 213.333 213.333-93.867 213.333-213.333-93.867-213.333-213.333-213.333zM213.333 874.667c-81.067 0-149.333-68.267-149.333-149.333s68.267-149.333 149.333-149.333 149.333 68.267 149.333 149.333-68.267 149.333-149.333 149.333zM460.8 448l102.4-102.4 34.133 34.133c55.467 55.467 128 89.6 217.6 89.6v-85.333c-64 0-115.2-25.6-153.6-64l-81.067-81.067c-21.333-17.067-42.667-25.6-68.267-25.6s-46.933 8.533-59.733 25.6l-119.467 119.467c-17.067 17.067-25.6 38.4-25.6 59.733 0 25.6 8.533 46.933 25.6 59.733l136.533 119.467v213.333h85.333v-264.533l-93.867-98.133zM810.667 512c-119.467 0-213.333 93.867-213.333 213.333s93.867 213.333 213.333 213.333 213.333-93.867 213.333-213.333-93.867-213.333-213.333-213.333zM810.667 874.667c-81.067 0-149.333-68.267-149.333-149.333s68.267-149.333 149.333-149.333 149.333 68.267 149.333 149.333-68.267 149.333-149.333 149.333z"></path>
</symbol>
<symbol id="icon-camera" viewBox="0 0 1024 1024">
	<title>camera</title>
	<path class="path1" d="M648.533 512c0 75.405-61.128 136.533-136.533 136.533s-136.533-61.128-136.533-136.533c0-75.405 61.128-136.533 136.533-136.533s136.533 61.128 136.533 136.533z"></path>
	<path class="path2" d="M384 85.333l-78.080 85.333h-135.253c-46.933 0-85.333 38.4-85.333 85.333v512c0 46.933 38.4 85.333 85.333 85.333h682.667c46.933 0 85.333-38.4 85.333-85.333v-512c0-46.933-38.4-85.333-85.333-85.333h-135.253l-78.080-85.333h-256zM512 725.333c-117.76 0-213.333-95.573-213.333-213.333s95.573-213.333 213.333-213.333 213.333 95.573 213.333 213.333-95.573 213.333-213.333 213.333z"></path>
</symbol>
<symbol id="icon-close" viewBox="0 0 1024 1024">
	<title>close</title>
	<path class="path1" d="M810.667 273.493l-60.16-60.16-238.507 238.507-238.507-238.507-60.16 60.16 238.507 238.507-238.507 238.507 60.16 60.16 238.507-238.507 238.507 238.507 60.16-60.16-238.507-238.507z"></path>
</symbol>
<symbol id="icon-directions" viewBox="0 0 1024 1024">
	<title>directions</title>
	<path class="path1" d="M926.293 481.707l-384-384c-16.64-16.64-43.52-16.64-60.16 0l-384 384c-16.64 16.64-16.64 43.52 0 60.16l384 384c16.64 16.64 43.52 16.64 60.16 0l384-384c16.64-16.213 16.64-43.093 0-60.16zM597.333 618.667v-106.667h-170.667v128h-85.333v-170.667c0-23.467 19.2-42.667 42.667-42.667h213.333v-106.667l149.333 149.333-149.333 149.333z"></path>
</symbol>
<symbol id="icon-gallery" viewBox="0 0 1024 1024">
	<title>gallery</title>
	<path class="path1" d="M938.667 682.667v-512c0-46.933-38.4-85.333-85.333-85.333h-512c-46.933 0-85.333 38.4-85.333 85.333v512c0 46.933 38.4 85.333 85.333 85.333h512c46.933 0 85.333-38.4 85.333-85.333zM469.333 512l86.613 115.627 126.72-158.293 170.667 213.333h-512l128-170.667zM85.333 256v597.333c0 46.933 38.4 85.333 85.333 85.333h597.333v-85.333h-597.333v-597.333h-85.333z"></path>
</symbol>
<symbol id="icon-image" viewBox="0 0 1024 1024">
	<title>image</title>
	<path class="path1" d="M896 810.667v-597.333c0-46.933-38.4-85.333-85.333-85.333h-597.333c-46.933 0-85.333 38.4-85.333 85.333v597.333c0 46.933 38.4 85.333 85.333 85.333h597.333c46.933 0 85.333-38.4 85.333-85.333zM362.667 576l106.667 128.427 149.333-192.427 192 256h-597.333l149.333-192z"></path>
</symbol>
<symbol id="icon-location" viewBox="0 0 1024 1024">
	<title>location</title>
	<path class="path1" d="M512 341.333c-94.293 0-170.667 76.373-170.667 170.667s76.373 170.667 170.667 170.667 170.667-76.373 170.667-170.667-76.373-170.667-170.667-170.667zM893.44 469.333c-19.627-177.92-160.853-319.147-338.773-338.773v-87.893h-85.333v87.893c-177.92 19.627-319.147 160.853-338.773 338.773h-87.893v85.333h87.893c19.627 177.92 160.853 319.147 338.773 338.773v87.893h85.333v-87.893c177.92-19.627 319.147-160.853 338.773-338.773h87.893v-85.333h-87.893zM512 810.667c-165.12 0-298.667-133.547-298.667-298.667s133.547-298.667 298.667-298.667 298.667 133.547 298.667 298.667-133.547 298.667-298.667 298.667z"></path>
</symbol>
<symbol id="icon-marker-comment" viewBox="0 0 1024 1024">
	<title>marker-comment</title>
	<path class="path1" d="M853.333 85.333h-682.667c-46.933 0-84.907 38.4-84.907 85.333l-0.427 768 170.667-170.667h597.333c46.933 0 85.333-38.4 85.333-85.333v-512c0-46.933-38.4-85.333-85.333-85.333zM384 469.333h-85.333v-85.333h85.333v85.333zM554.667 469.333h-85.333v-85.333h85.333v85.333zM725.333 469.333h-85.333v-85.333h85.333v85.333z"></path>
</symbol>
<symbol id="icon-marker-hazard" viewBox="0 0 1024 1024">
	<title>marker-hazard</title>
	<path class="path1" d="M853.333 85.333h-682.667c-46.933 0-84.907 38.4-84.907 85.333l-0.427 768 170.667-170.667h597.333c46.933 0 85.333-38.4 85.333-85.333v-512c0-46.933-38.4-85.333-85.333-85.333zM554.667 597.333h-85.333v-85.333h85.333v85.333zM554.667 426.667h-85.333v-170.667h85.333v170.667z"></path>
</symbol>
<symbol id="icon-marker-image" viewBox="0 0 1024 1024">
	<title>marker-image</title>
	<path class="path1" d="M853.333 85.333h-682.667c-46.933 0-84.907 38.4-84.907 85.333l-0.427 768 170.667-170.667h597.333c46.933 0 85.333-38.4 85.333-85.333v-512c0-46.933-38.4-85.333-85.333-85.333zM213.333 597.333l149.333-192 106.667 128.427 149.333-192.427 192 256h-597.333z"></path>
</symbol>
<symbol id="icon-marker-review" viewBox="0 0 1024 1024">
	<title>marker-review</title>
	<path class="path1" d="M853.333 85.333h-682.667c-46.933 0-84.907 38.4-84.907 85.333l-0.427 768 170.667-170.667h597.333c46.933 0 85.333-38.4 85.333-85.333v-512c0-46.933-38.4-85.333-85.333-85.333zM256 597.333v-105.387l293.547-293.547c8.533-8.533 21.76-8.533 30.293 0l75.52 75.52c8.533 8.533 8.533 21.76 0 30.293l-293.973 293.12h-105.387zM768 597.333h-320l85.333-85.333h234.667v85.333z"></path>
</symbol>
<symbol id="icon-marker-tick" viewBox="0 0 1024 1024">
	<title>marker-tick</title>
	<path class="path1" d="M810.667 42.667h-597.333c-46.933 0-84.907 38.4-84.907 85.333l-0.427 551.68c0 29.44 14.933 55.467 37.547 70.827l346.453 230.827 346.027-230.827c22.613-15.36 37.547-41.387 37.547-70.827l0.427-551.68c0-46.933-38.4-85.333-85.333-85.333zM426.667 682.667l-213.333-213.333 60.16-60.16 153.173 152.747 323.84-323.84 60.16 60.587-384 384z"></path>
</symbol>
<symbol id="icon-marker-user" viewBox="0 0 1024 1024">
	<title>marker-user</title>
	<path class="path1" d="M810.667 85.333h-597.333c-47.36 0-85.333 38.4-85.333 85.333v597.333c0 46.933 37.973 85.333 85.333 85.333h170.667l128 128 128-128h170.667c46.933 0 85.333-38.4 85.333-85.333v-597.333c0-46.933-38.4-85.333-85.333-85.333zM512 226.133c63.573 0 115.2 51.627 115.2 115.2s-51.627 115.2-115.2 115.2c-63.573 0-115.2-51.627-115.2-115.2s51.627-115.2 115.2-115.2zM768 682.667h-512v-38.4c0-85.333 170.667-132.267 256-132.267s256 46.933 256 132.267v38.4z"></path>
</symbol>
<symbol id="icon-marker-video" viewBox="0 0 1024 1024">
	<title>marker-video</title>
	<path class="path1" d="M853.333 85.333h-682.667c-46.933 0-84.907 38.4-84.907 85.333l-0.427 768 170.667-170.667h597.333c46.933 0 85.333-38.4 85.333-85.333v-512c0-46.933-38.4-85.333-85.333-85.333zM554.667 597.333h-85.333v-85.333h85.333v85.333zM554.667 426.667h-85.333v-170.667h85.333v170.667z"></path>
</symbol>
<symbol id="icon-navigation" viewBox="0 0 1024 1024">
	<title>navigation</title>
	<path class="path1" d="M512 85.333l-320 780.373 30.293 30.293 289.707-128 289.707 128 30.293-30.293z"></path>
</symbol>
<symbol id="icon-parking" viewBox="0 0 1024 1024">
	<title>parking</title>
	<path class="path1" d="M554.667 128h-298.667v768h170.667v-256h128c141.227 0 256-114.773 256-256s-114.773-256-256-256zM563.2 469.333h-136.533v-170.667h136.533c46.933 0 85.333 38.4 85.333 85.333s-38.4 85.333-85.333 85.333z"></path>
</symbol>
<symbol id="icon-person" viewBox="0 0 1024 1024">
	<title>person</title>
	<path class="path1" d="M512 512c94.293 0 170.667-76.373 170.667-170.667s-76.373-170.667-170.667-170.667-170.667 76.373-170.667 170.667 76.373 170.667 170.667 170.667zM512 597.333c-113.92 0-341.333 57.173-341.333 170.667v85.333h682.667v-85.333c0-113.493-227.413-170.667-341.333-170.667z"></path>
</symbol>
<symbol id="icon-place" viewBox="0 0 1024 1024">
	<title>place</title>
	<path class="path1" d="M512 85.333c-165.12 0-298.667 133.547-298.667 298.667 0 224 298.667 554.667 298.667 554.667s298.667-330.667 298.667-554.667c0-165.12-133.547-298.667-298.667-298.667zM512 490.667c-58.88 0-106.667-47.787-106.667-106.667s47.787-106.667 106.667-106.667 106.667 47.787 106.667 106.667-47.787 106.667-106.667 106.667z"></path>
</symbol>
<symbol id="icon-run" viewBox="0 0 1024 1024">
	<title>run</title>
	<path class="path1" d="M575.573 233.813c46.933 0 85.333-38.4 85.333-85.333s-38.4-85.333-85.333-85.333-85.333 38.4-85.333 85.333 38.4 85.333 85.333 85.333zM421.973 826.88l42.667-187.733 89.6 85.333v256h85.333v-320l-89.6-85.333 25.6-128c55.467 64 140.8 106.667 234.667 106.667v-85.333c-81.067 0-149.333-42.667-183.467-102.4l-42.667-68.267c-17.067-25.6-42.667-42.667-72.533-42.667-12.8 0-21.333 4.267-34.133 4.267l-221.867 93.867v200.533h85.333v-145.067l76.8-29.867-68.267 345.6-209.067-42.667-17.067 85.333 298.667 59.733z"></path>
</symbol>
<symbol id="icon-star-half" viewBox="0 0 1024 1024">
	<title>star-half</title>
	<path class="path1" d="M938.667 415.573l-306.773-26.453-119.893-282.453-119.893 282.88-306.773 26.027 232.96 201.813-69.973 299.947 263.68-159.147 263.68 159.147-69.547-299.947 232.533-201.813zM512 678.4v-396.8l72.96 172.373 186.88 16.213-141.653 122.88 42.667 182.613-160.853-97.28z"></path>
</symbol>
<symbol id="icon-star" viewBox="0 0 1024 1024">
	<title>star</title>
	<path class="path1" d="M512 736.853l263.68 159.147-69.973-299.947 232.96-201.813-306.773-26.027-119.893-282.88-119.893 282.88-306.773 26.027 232.96 201.813-69.973 299.947z"></path>
</symbol>
<symbol id="icon-toilets" viewBox="0 0 1024 1024">
	<title>toilets</title>
	<path class="path1" d="M234.667 938.667v-320h-64v-234.667c0-46.933 38.4-85.333 85.333-85.333h128c46.933 0 85.333 38.4 85.333 85.333v234.667h-64v320h-170.667zM768 938.667v-256h128l-108.373-325.547c-11.947-34.987-44.373-58.453-81.067-58.453h-5.12c-36.693 0-69.547 23.467-81.067 58.453l-108.373 325.547h128v256h128zM320 256c47.36 0 85.333-37.973 85.333-85.333s-37.973-85.333-85.333-85.333-85.333 37.973-85.333 85.333 37.973 85.333 85.333 85.333zM704 256c47.36 0 85.333-37.973 85.333-85.333s-37.973-85.333-85.333-85.333-85.333 37.973-85.333 85.333 37.973 85.333 85.333 85.333z"></path>
</symbol>
<symbol id="icon-walk" viewBox="0 0 1024 1024">
	<title>walk</title>
	<path class="path1" d="M576 234.667c46.933 0 85.333-38.4 85.333-85.333s-38.4-85.333-85.333-85.333-85.333 38.4-85.333 85.333 38.4 85.333 85.333 85.333zM418.133 379.733l-119.467 601.6h89.6l76.8-341.333 89.6 85.333v256h85.333v-320l-89.6-85.333 25.6-128c55.467 64 140.8 106.667 234.667 106.667v-85.333c-81.067 0-149.333-42.667-183.467-102.4l-42.667-68.267c-17.067-25.6-42.667-42.667-72.533-42.667-12.8 0-21.333 4.267-34.133 4.267l-221.867 93.867v200.533h85.333v-145.067l76.8-29.867z"></path>
</symbol>
<symbol id="icon-flower" viewBox="0 0 24 24">
	<title>flower</title>
	<path d="M12 22c4.97 0 9-4.03 9-9-4.97 0-9 4.03-9 9zM5.6 10.25c0 1.38 1.12 2.5 2.5 2.5.53 0 1.01-.16 1.42-.44l-.02.19c0 1.38 1.12 2.5 2.5 2.5s2.5-1.12 2.5-2.5l-.02-.19c.4.28.89.44 1.42.44 1.38 0 2.5-1.12 2.5-2.5 0-1-.59-1.85-1.43-2.25.84-.4 1.43-1.25 1.43-2.25 0-1.38-1.12-2.5-2.5-2.5-.53 0-1.01.16-1.42.44l.02-.19C14.5 2.12 13.38 1 12 1S9.5 2.12 9.5 3.5l.02.19c-.4-.28-.89-.44-1.42-.44-1.38 0-2.5 1.12-2.5 2.5 0 1 .59 1.85 1.43 2.25-.84.4-1.43 1.25-1.43 2.25zM12 5.5c1.38 0 2.5 1.12 2.5 2.5s-1.12 2.5-2.5 2.5S9.5 9.38 9.5 8s1.12-2.5 2.5-2.5zM3 13c0 4.97 4.03 9 9 9 0-4.97-4.03-9-9-9z"/>
</symbol>
<symbol id="icon-landscape" viewBox="0 0 24 24">
	<title>Landscape</title>
	<path d="M14 6l-3.75 5 2.85 3.8-1.6 1.2C9.81 13.75 7 10 7 10l-6 8h22L14 6z"/>
</symbol>
</defs>
</svg>
