<svg xmlns="http://www.w3.org/2000/svg" viewBox="0 0 44 44" enable-background="new 0 0 44 44"><path d="M40 44h-36c-2.2 0-4-1.8-4-4v-36c0-2.2 1.8-4 4-4h36c2.2 0 4 1.8 4 4v36c0 2.2-1.8 4-4 4z"/><g fill="#fff"><path d="M25.6 24.2l.6-2.8 1.1-.9-1.6 7.2-1.3 2.2c-.1.2-.2.3-.2.5 0 .7.3 1.1 1 1.2.4 0 .8-.2 1-.6 0 0 1.4-2.3 1.4-2.4.1-.1.2-.3.2-.5l.6-2.5 1.7 1.8.6 2.9c.1.6.5.9 1 .9.7 0 1.1-.3 1.2-1.1v-.2l-.6-3.2c0-.1 0-.2-.1-.3-.1-.1-2.3-2.7-2.3-2.7l.7-2.7.6 1.2c.1.1.1.2.2.2l2 1.4c.9.6 1.7-.5.8-1.2l-1.8-1.3-1.6-3.2c-.4-.5-.8-.8-1.3-.8-.4 0-.8.1-1.1.3l-3.3 2.7c-.1.1-.2.2-.2.4 0 0-.7 2.9-.7 3.2-.2.8 1.2 1.1 1.4.3zM37.9 31.5c-.1-.3-.4-.5-.7-.4-2.8.8-4.8.9-6.4 1-1.7.1-5.3.1-7.3.1-1.2 0-2.3-.1-3.4-.2-1.4-.1-2.9-.2-4.5-.2-.9 0-1.9.1-2.9.1-1.7.1-3.7.2-6 .2-.3 0-.6.3-.6.6s.3.6.6.6c2.4 0 4.3-.1 6.1-.2 1-.1 2-.1 2.9-.1 1.6 0 3 .1 4.4.2 1.2.1 2.3.2 3.5.2 2.3 0 5.8-.1 7.4-.1 1.6-.1 3.7-.2 6.7-1 .1-.2.3-.5.2-.8zM9.5 31.4c.6 0 1-.2 1.3-.7 0 0 2.8-4.7 2.8-4.8.1-.1.2-.4.2-.6l.7-3.1 3 3.2.9 4.9c.2.7.6 1.1 1.3 1.2.9.1 1.4-.4 1.5-1.3v-.30000000000000004l-1-5.3c0-.1-.1-.3-.2-.4l-3.7-4.3 1-4.1.8 1.5c.1.2.2.3.2.3l3.1 2.1c1.3.8 2.2-.8 1-1.5l-2.8-2-2-4.1c-.5-.6-1-1-1.6-1-.5-.1-1 .1-1.5.4l-4.2 3.4c-.2.2-.3.3-.3.4 0 0-.9 3.8-.9 4-.3 1.5 1.6 1.7 1.9.4l.7-3.5 1.5-1.1-2.2 9.7-2.6 4.5c-.1.2-.2.4-.2.6-.1.9.3 1.4 1.3 1.5z"/><circle cx="16.4" cy="8.5" r="2"/><circle cx="30.6" cy="15.5" r="1.6"/></g></svg>