<svg xmlns="http://www.w3.org/2000/svg" viewBox="0 0 44 44" enable-background="new 0 0 44 44"><path d="M40 44h-36c-2.2 0-4-1.8-4-4v-36c0-2.2 1.8-4 4-4h36c2.2 0 4 1.8 4 4v36c0 2.2-1.8 4-4 4z"/><g fill="#fff"><path d="M26.6 16.2c-1.1.1-1.7.7-1.6 1.8l.3 5.3c.1 1.1.7 1.6 1.8 1.6h5.7l2.5 4.2c.3.6.8.7 1.4.4.6-.3.7-.8.4-1.4l-3.2-5.4c-.2-.3-.5-.5-.9-.5h-4.4l-.1-1h3.2c.5 0 .8-.3.8-.8s-.3-.8-.8-.8h-3.2l-.1-1.9c-.1-1.1-.7-1.6-1.8-1.5zM21.1 25.7c0 1.8.6 3.4 1.9 4.7 1.3 1.3 2.8 1.9 4.6 1.9 1.4 0 2.6-.4 3.8-1.2 1.1-.8 1.9-1.8 2.4-3l-1-1.7c-.2 1.3-.8 2.3-1.7 3.2-1 .8-2.1 1.3-3.4 1.3-1.4 0-2.7-.5-3.7-1.5s-1.5-2.2-1.5-3.7c0-1.6.7-3 2-4.1l-.1-1.6c-1 .6-1.8 1.4-2.4 2.4-.6 1-.9 2.1-.9 3.3zM9.1 32.1c.6 0 1-.2 1.3-.7l2.8-4.8c.1-.1.2-.4.2-.6 0-.2.7-3.1.7-3.1l3 3.2.9 4.9c.2.7.6 1.1 1.3 1.2.9.1 1.4-.4 1.5-1.3v-.30000000000000004l-1-5.3c0-.1-.1-.3-.2-.4l-3.7-4.3 1-4.1.8 1.5c.1.2.2.3.2.3l3.1 2.1c1.3.8 2.2-.8 1-1.5l-2.8-2-2-4.1c-.5-.6-1-1-1.6-1-.5-.1-1 .1-1.5.4l-4.1 3.4c-.2.2-.3.3-.3.4 0 0-.9 3.8-.9 4-.3 1.5 1.6 1.7 1.9.4l.7-3.5 1.5-1.1-2.2 9.8-2.6 4.4c-.1.2-.2.4-.2.6-.1.9.3 1.4 1.2 1.5zM38 32.1c-.1-.3-.4-.5-.7-.4-2.8.8-4.8.9-6.4 1-1.7.1-5.3.1-7.3.1-1.2 0-2.3-.1-3.4-.2-1.4-.1-2.9-.2-4.5-.2-.9 0-1.9.1-2.9.1-.5 0-5.9.3-6.2.3-.4.2-.6.5-.6.8 0 .3.3.5.6.5s5.6-.3 6.1-.3c1-.1 2-.1 2.9-.1 1.6 0 3 .1 4.4.2 1.2.1 2.3.2 3.5.2 2.3 0 5.8-.1 7.4-.1 1.6-.1 3.7-.2 6.7-1 .3-.2.5-.6.4-.9z"/><circle cx="16.1" cy="9.3" r="2"/><circle cx="26.6" cy="13.7" r="1.8"/></g></svg>