<svg xmlns="http://www.w3.org/2000/svg" viewBox="0 0 44 44" enable-background="new 0 0 44 44"><path d="M40 44h-36c-2.2 0-4-1.8-4-4v-36c0-2.2 1.8-4 4-4h36c2.2 0 4 1.8 4 4v36c0 2.2-1.8 4-4 4z"/><g fill="#fff"><path d="M30.7 26.1c.2.7 1.2.5 1-.3l-3.4-14.3c-.1-.3-.4-.4-.7-.3-.3.1-.4.3-.3.6 0 0 3 12.8 3.4 14.3zM13.9 33.4c.7.2 1.3 0 1.6-.4.2-.2.2-.5.3-.8l2-9.5 4.6.9s.7 3.5.8 4.3c0 .4.2.7.4.9.5.7 1.9.7 2.3-.4.1-.2.1-.5 0-.7-.1-.9-1.1-5.5-1.1-5.5-.1-.6-.4-.9-.9-1l-4.4-1 .9-4.6 1.6 1.6c.2.2.5.2.8.1 0 0 3-.9 3.6-1.1.6-.2 1-1 .6-1.6-.3-.5-.7-.6-1.3-.5l-3 1s-.6-.7-1.6-1.9c-.5-.6-.9-1.3-1.5-1.5-.6-.3-1-.2-1-.2-.8-.1-1.6.4-1.8 1.1-.2.7-3.8 19.1-3.8 19.1-.1.9.2 1.5.9 1.7zM14 10.9c1.1 0 2.2-.5 2.3-1.2.1-.7-.2-1.3-.8-1.4-.8-.2-1.4.3-1.7.3-1 .2-1.4.7-1.5 1.3-.2.6.6 1 1.7 1zM9.5 22.6l3.8.8c.4.1.7-.1.8-.5l1.9-10.8c.1-.4-.1-.7-.5-.8 0 0-2.6-.1-3-.1-.3 0-.7.1-.8.5l-.8 4.5c-1.3 1-1.6 3.2-1.7 3.6l-.4 2.1c.1.4.2.7.7.7zM36 24.5c-.9 0-1.6.4-2.6 1.3-.4.3-.8.9-1.4 1.2-.5.2-.8.4-1.2.6l-.3.2c-1.4.7-3.1 1.5-4.5 2-.9.3-1.4.4-2.3.4-1.4.1-2.4 1.1-3.3 2.1-.7.7-1.4 1.4-2.2 1.5-.7 0-1.7.2-2.7.3-.5.1-1.2.2-1.6.3-1.5.4-5.1 1.4-6.1 1.9-.3.1-.4.5-.3.8.1.3.5.4.8.3 2.4-1 8-2.3 10-2.4 1.2-.1 2.1-1 2.9-1.8.9-.9 1.7-1.7 2.8-1.7 2.1 0 4.9-1.4 7.1-2.5.5-.3 1.1-.5 1.5-.7.4-.2 1.1-.8 1.7-1.3 1-.9 1.4-1 1.8-1 .3 0 .6-.3.6-.6-.1-.6-.4-.9-.7-.9z"/><circle cx="19.9" cy="8.7" r="2.1"/></g></svg>