<svg xmlns="http://www.w3.org/2000/svg" viewBox="0 0 44 44" enable-background="new 0 0 44 44"><path d="M40 44h-36c-2.2 0-4-1.8-4-4v-36c0-2.2 1.8-4 4-4h36c2.2 0 4 1.8 4 4v36c0 2.2-1.8 4-4 4z"/><g fill="#fff"><path d="M16.9 33.2c.1.2.1.3.3.5.1.1.4.5 1.1.5.7 0 1.1-.4 1.2-.5.1-.2.2-.4.3-.7l1.1-8.8 4.7.6s1 3.4 1.2 4.3c.1.5.4.9.8 1.1.4.2 1.1.2 1.5-.1.5-.3.6-.9.4-1.5-.2-.9-1.4-5-1.6-5.5-.1-.5-.3-.9-.8-1-.5-.1-4.6-.7-4.6-.7l.3-3.2.4 1.1c.2.3.4.5.6.6.2.1.3.1.3.1s2.4.3 3.9.5c1.6.2 1.9-2.2.2-2.3l-3.4-.4-1.2-3.8c-.4-1-.9-1.5-1.6-1.6-.7-.1-1-.1-1.1-.1-.9-.1-1.7.5-1.8 1.3-.1.8-2.2 18.9-2.2 18.9-.1.3-.1.5 0 .7zM17.3 28.1zM14.5 20.2l2 .2c.5.1.7-.1.7-.6l.7-7c0-.5-.2-.7-.6-.8l-2-.2c-.4-.1-.7.2-.8.6l-.7 7c.1.5.3.7.7.8zM26 34zM37 30c-.1-.3-.5-.5-.8-.4-1.8.6-2.6.9-3.2.9-.7 0-1.7.1-2.9.2-1 .1-2 .2-3 .2-1.9.1-2 .9-2.4 2.7v.1c-.3 1.1-1.8 1.1-2.5 1-1.4-.1-4.9.1-6 .2-.5 0-7.5.4-8.7.4-.3 0-.6.3-.6.7 0 .3.3.6.7.6 0 0 8.2-.4 8.7-.4 1.4-.1 4.6-.3 5.8-.2 2.1.2 3.5-.6 3.8-2v-.2c.3-1.6.3-1.6 1.3-1.7 1-.1 2-.2 3-.2 1.1-.1 2.2-.2 2.9-.2 1 0 3.5-1 3.5-1 .4 0 .5-.4.4-.7z"/><circle cx="22" cy="9.5" r="2.2"/></g></svg>